<?xml version="1.0" encoding="utf-8"?>
<!-- Generator: Adobe Illustrator 24.0.3, SVG Export Plug-In . SVG Version: 6.00 Build 0)  -->
<svg version="1.1" id="Layer_1" xmlns="http://www.w3.org/2000/svg" xmlns:xlink="http://www.w3.org/1999/xlink" x="0px" y="0px"
	 viewBox="0 0 1080 1080" style="enable-background:new 0 0 1080 1080;" xml:space="preserve">
<g>
	<path d="M689.18,668.02c2.57-1.73,5.09-3.32,7.5-5.07c7.66-5.57,14.55-11.97,20.58-19.29c1.24-1.51,2.6-2.94,3.97-4.33
		c0.36-0.37,1.12-0.77,1.47-0.62c0.53,0.22,1.18,0.89,1.22,1.41c0.13,1.94,0.11,3.9,0,5.84c-0.27,5.09-1.56,10.01-2.71,14.95
		c-0.18,0.77-0.64,1.54-1.15,2.17c-6.02,7.38-12.56,14.28-19.23,21.05c-2.72,2.76-5.44,5.52-8.12,8.32
		c-0.33,0.34-0.56,0.88-0.63,1.35c-1.01,7.54-0.93,15.05,0.69,22.51c0.07,0.31,0.19,0.64,0.14,0.94c-0.08,0.5-0.29,0.98-0.44,1.47
		c-0.45-0.28-1.12-0.45-1.3-0.85c-1.19-2.6-2.42-5.2-3.35-7.9c-0.91-2.67-1.48-5.46-2.21-8.2c-0.13-0.49-0.34-0.96-0.6-1.67
		c-0.95,0.83-1.78,1.54-2.57,2.28c-5.41,5.04-11,9.87-17.02,14.19c-4.94,3.55-10.12,6.69-15.87,8.76c-5.13,1.85-10.34,1.9-15.54,0.4
		c-1.4-0.4-2.25-0.29-3.24,0.91c-2.15,2.62-4.37,5.21-6.84,7.52c-5.1,4.77-11.16,6.88-18.17,5.66c-1.9-0.33-3.46-1.39-4.79-2.79
		c-2.99-3.15-4.48-7.06-5.56-11.13c-1.45-5.47-2.71-10.99-4.14-16.47c-0.37-1.42-1-2.78-1.65-4.09c-0.34-0.69-0.92-1.33-1.53-1.8
		c-1.61-1.23-3.58-0.87-4.41,1.03c-0.74,1.69-1.19,3.55-1.49,5.38c-1.17,7.05-2.12,14.14-3.36,21.18c-1.3,7.43-2.9,14.79-5.76,21.83
		c-4.09,10.07-10.16,18.71-18.46,25.74c-5.31,4.5-11.39,7.6-17.94,9.87c-5.69,1.97-11.58,3-17.51,3.77
		c-7.05,0.91-14.12,1.65-21.18,2.43c-1.07,0.12-2.16,0.03-3.23,0.02c-1.07-0.01-1.85-0.65-1.99-1.57c-0.07-0.45,0.68-1.26,1.23-1.5
		c2.92-1.29,5.9-2.42,8.84-3.67c10.77-4.58,21.41-9.4,31.27-15.8c9.67-6.29,18.19-13.8,24.97-23.19
		c4.62-6.39,8.15-13.37,10.15-21.01c1.67-6.36,3.03-12.8,4.56-19.2c1.57-6.6,3.19-13.18,6.03-19.38c1.15-2.51,2.52-4.91,4.58-6.82
		c2.57-2.39,6.27-2.28,8.65,0.31c1.96,2.13,3.18,4.71,4,7.43c1.7,5.65,3.17,11.38,4.91,17.02c0.73,2.34,1.79,4.61,2.94,6.78
		c1.17,2.22,3.11,3.22,5.74,3.12c9.58-0.38,16.78-6.36,19.04-16.08c0.83-3.58,1.47-7.19,2.21-10.79c0.09-0.43,0.14-0.94,0.4-1.23
		c0.39-0.43,0.95-0.94,1.46-0.96c0.4-0.02,1.09,0.59,1.2,1.03c0.73,3.06,1.35,6.14,1.98,9.21c0.16,0.78,0.17,1.59,0.29,2.37
		c0.22,1.4,1.7,2.73,3.51,2.98c1.05,0.15,2.17,0.17,3.21,0c7.36-1.23,14.02-4.16,20.37-8.72c-0.75-0.15-1.18-0.23-1.62-0.32
		c-5.91-1.25-11.39-3.46-15.97-7.48c-5.17-4.55-7.5-10.4-7.45-17.25c0.06-8.46,2.62-16.04,8.28-22.41c4.54-5.1,10.3-8.14,17.01-9.29
		c3.12-0.53,6.25-0.69,9.41-0.14c3.44,0.6,5.97,2.57,8.12,5.12c4.07,4.84,5.98,10.58,6.65,16.77
		C689.03,662.62,689.04,665.18,689.18,668.02z M681.5,670.43c-0.09-3.6-1.08-6.72-3.87-8.92c-5.85-4.62-12.25-5.19-18.96-2.11
		c-2.37,1.09-4.15,2.88-5.29,5.31c-0.53,1.13-0.18,1.8,0.57,2.5c1.57,1.48,3.38,2.59,5.49,3c2.46,0.48,4.95,0.87,7.44,1.07
		C671.74,671.68,676.59,671.45,681.5,670.43z"/>
	<path d="M426.61,690.51c0.66,1.29,1.58,2.51,1.92,3.88c1.1,4.41,2.21,8.83,2.91,13.31c1.3,8.36,2.24,16.77,3.45,25.15
		c0.96,6.68,2.63,13.16,6.64,18.78c2.62,3.67,5.71,6.74,10.14,8.23c2.4,0.81,4.27,0.22,5.65-1.74c1.19-1.69,2.39-3.44,3.13-5.34
		c1.84-4.71,2.92-9.63,2.84-14.73c-0.06-4.06-1.04-7.98-2.04-11.89c-2.1-8.23-4.17-16.46-6.27-24.69
		c-1.59-6.22-3.23-12.42-4.78-18.65c-0.2-0.81-0.17-1.75,0-2.58c0.99-4.85,2.01-9.69,3.13-14.51c0.19-0.8,0.92-1.48,1.41-2.21
		c0.51,0.64,1.27,1.21,1.48,1.95c0.78,2.63,1.39,5.32,2.04,7.99c2.48,10.12,4.81,20.27,7.48,30.33c1.39,5.23,3.11,10.41,5.17,15.4
		c1.82,4.41,5.28,7.51,10.16,8.28c6.13,0.97,11.91-0.1,17.1-3.75c6.09-4.28,9.98-10.2,12.46-17.03c1.47-4.04,2.7-8.21,3.47-12.43
		c1.55-8.5,1.66-17.08,0.08-25.63c-0.75-4.06-1.89-7.99-3.81-11.66c-0.08-0.16-0.2-0.31-0.42-0.66c-0.9,3.22-1.76,6.24-2.59,9.27
		c-2.99,10.88-5.86,21.8-9,32.64c-1.61,5.55-3.64,10.98-5.56,16.43c-0.38,1.09-1.13,2.04-1.71,3.06c-0.18-0.02-0.36-0.04-0.54-0.06
		c-0.16-0.68-0.5-1.37-0.45-2.03c0.17-2.38,0.31-4.79,0.76-7.13c1.92-10.2,3.91-20.38,5.93-30.56c0.86-4.34,1.8-8.67,2.85-12.98
		c2.2-9.07,4.37-18.15,6.79-27.16c0.95-3.56,2.5-6.97,3.81-10.44c0.21-0.55,0.57-1.05,0.93-1.53c1.11-1.47,2.33-1.76,3.6-0.44
		c1.33,1.38,2.55,2.98,3.41,4.69c2.49,4.96,3.74,10.33,4.75,15.75c1.47,7.9,2.59,15.86,2.37,23.91c-0.14,5.38-0.67,10.76-1.26,16.12
		c-0.83,7.47-2.55,14.79-4.8,21.95c-1.19,3.8-2.71,7.5-4.23,11.19c-2.54,6.2-5.83,11.98-10.06,17.21
		c-4.16,5.14-9.08,9.29-15.25,11.86c-4.2,1.75-8.59,2.19-13.05,1.69c-2.76-0.31-5.17-1.59-7.03-3.75c-0.21-0.24-0.4-0.49-0.85-1.03
		c-0.48,2.12-0.93,3.91-1.3,5.71c-1.23,6.02-2.55,12.02-4.84,17.75c-1.57,3.95-3.43,7.78-6.38,10.89
		c-2.83,2.97-6.71,4.19-11.39,2.24c-6.29-2.62-10.23-7.44-13.17-13.3c-2.53-5.06-3.68-10.52-4.51-16.06
		c-0.12-0.81-0.26-1.63-0.45-2.76c-0.48,0.63-0.79,1.06-1.11,1.47c-3.33,4.3-6.59,8.65-10.77,12.19
		c-6.44,5.44-13.73,8.92-22.23,9.28c-4.03,0.17-8.1-0.28-11.85-1.96c-4.23-1.9-8.45-6.28-7.3-12.06c0.63-3.15,1.74-6.22,2.8-9.26
		c1.43-4.09,3.32-7.97,6.16-11.29c4.18-4.89,9.29-8.46,15.25-10.89c4.99-2.03,9.94-4.14,14.85-6.36c1.8-0.81,3.47-1.96,5.13-3.06
		c2.27-1.5,3.4-3.76,3.93-6.35c0.69-3.35,1.28-6.73,2.01-10.07c0.71-3.27,1.54-6.52,2.32-9.78c0.05-0.22,0.14-0.43,0.21-0.64
		C426.3,690.61,426.46,690.56,426.61,690.51z M422.71,723.01l-0.26-0.03c-0.2,0.38-0.4,0.76-0.61,1.14
		c-1.69,3.03-3.81,5.71-6.46,7.96c-5.06,4.29-10.78,7.54-16.6,10.64c-2.15,1.14-4.33,2.24-6.36,3.57c-2.09,1.37-1.99,2.89,0.07,4.31
		c0.35,0.24,0.78,0.4,1.19,0.54c2.85,0.97,5.79,0.77,8.67,0.34c5.79-0.88,11.17-2.92,16.02-6.26c3.67-2.53,6.1-5.73,5.66-10.48
		c-0.21-2.26-0.39-4.53-0.63-6.79C423.22,726.29,422.95,724.65,422.71,723.01z"/>
	<path d="M387.95,419.45c-0.82,1.42-1.54,2.66-2.26,3.91c-0.13-0.04-0.25-0.09-0.38-0.13c-0.04-0.24-0.13-0.49-0.1-0.73
		c0.93-7.13,1.82-14.26,2.84-21.37c0.27-1.84,0.95-3.62,1.5-5.41c0.29-0.93,0.82-1.36,1.98-1.07c5.53,1.4,9.33,4.85,11.99,9.74
		c3.04,5.59,4.29,11.63,4.5,17.95c0.26,7.52-0.95,14.8-3.5,21.85c-1.88,5.18-4.82,9.68-8.76,13.58
		c-6.47,6.39-12.41,13.22-16.99,21.14c-1.55,2.68-2.69,5.52-3.18,8.6c-0.45,2.85,0.37,4.24,3.24,4.85
		c3.55,0.76,7.13,1.37,10.71,1.95c4.77,0.77,9.25,2.13,12.88,5.55c3.02,2.85,4.96,6.35,6.03,10.3c1.98,7.35,1.87,14.78,0.52,22.21
		c-2.07,11.43-6.62,21.8-13.52,31.12c-4.85,6.55-10.66,12.1-17.68,16.3c-6.43,3.84-13.44,5.09-20.84,4.49
		c-4.75-0.38-9.3-1.48-13.48-3.82c-3.98-2.23-7.41-5.13-10.39-8.57c-6.12-7.05-9.69-15.36-11.62-24.37
		c-2.59-12.05-2.93-24.15-0.04-36.23c1.95-8.14,4.81-15.96,8.2-23.59c3.31-7.45,7.11-14.66,11.64-21.44
		c2.97-4.44,6.23-8.69,9.55-12.89c1.32-1.67,3.07-3.07,5.41-3.21c1.47-0.09,1.78,0.41,1.04,1.67c-1.58,2.73-3.21,5.43-4.82,8.14
		c-4.87,8.2-9.62,16.48-13.49,25.21c-4.04,9.12-7.17,18.54-8.6,28.43c-1.15,7.9-1.56,15.83,0.57,23.68
		c2.17,8,6.23,14.74,12.98,19.71c4.36,3.21,9.24,5.06,14.63,5.8c4.78,0.65,9.41,0.4,13.91-1.31c4.25-1.62,8.09-4,11.59-6.88
		c7.49-6.15,13.07-13.67,15.92-23c0.74-2.42,1-5.01,1.23-7.54c0.18-2.01-0.78-3.55-2.64-4.58c-2.62-1.45-5.5-1.82-8.36-2.35
		c-4.26-0.79-8.62-1.05-12.75-2.6c-6.83-2.56-10.66-7.29-11.18-14.62c-0.53-7.4,0.03-14.69,2.44-21.75
		c2.58-7.55,6.48-14.38,11.53-20.57c4.16-5.1,9.17-9.35,13.72-14.06c3.5-3.62,5.68-7.97,4.87-13.2c-0.61-3.94-3.18-6.62-6.48-8.62
		C390.93,420.85,389.42,420.2,387.95,419.45z"/>
	<path d="M653.66,527.49c-1.85,1.26-3.43,2.32-5,3.4c-5.99,4.12-12.13,8.01-18.65,11.23c-5.74,2.83-11.62,5.3-18.09,5.91
		c-1.27,0.12-2.55,0.08-3.83,0.04c-2.01-0.06-3.53-1.39-5.25-2.17c-3.82-1.71-6.32-4.91-8.52-8.33c-4.43-6.88-7.24-14.46-9.48-22.27
		c-1.02-3.56-1.86-7.18-2.83-10.75c-0.23-0.87-0.12-1.36,0.69-1.95c2.67-1.96,5.23-4.08,7.83-6.14c0.43-0.34,0.87-0.69,1.34-1.07
		c1.13,3.34,2.14,6.64,3.35,9.86c1.8,4.78,3.77,9.51,6.87,13.64c1.98,2.63,4.49,4.49,7.6,5.79c1.33,0.56,2.48,0.93,3.85,0.87
		c4.67-0.2,9.17-1.25,13.55-2.81c2.2-0.78,4.31-1.8,6.46-2.71c-0.02-0.12-0.03-0.24-0.05-0.36c-0.35-0.13-0.7-0.26-1.04-0.39
		c-5.97-2.19-11.37-5.27-15.43-10.3c-2.83-3.51-4.62-7.53-4.7-12.05c-0.19-12.08,4.45-21.91,14.58-28.67
		c7.45-4.97,15.78-5.85,24.36-3.54c3.29,0.88,5.58,3.33,7.36,6.2c3.07,4.93,4.28,10.38,4.26,16.1c-0.01,3.05-0.36,6.11-0.56,9.27
		c1.76-0.81,3.64-1.62,5.47-2.53c7.29-3.61,14.09-8.01,20.43-13.09c3.3-2.64,6.45-5.48,9.7-8.19c0.39-0.32,1.24-0.65,1.51-0.46
		c0.51,0.36,1.1,1.14,1.04,1.67c-0.32,2.6-0.62,5.24-1.35,7.74c-1.24,4.24-2.79,8.39-4.24,12.57c-0.14,0.4-0.35,0.84-0.66,1.1
		c-5.53,4.71-11.01,9.49-16.65,14.08c-5.02,4.08-10.22,7.93-15.31,11.92c-0.39,0.31-0.67,0.88-0.81,1.39
		c-2,7.33-2.94,14.78-2.43,22.39c0.03,0.48,0.07,0.97-0.01,1.43c-0.05,0.27-0.28,0.64-0.5,0.71c-0.22,0.07-0.68-0.1-0.8-0.3
		c-0.42-0.71-0.83-1.46-1.08-2.24c-1.48-4.46-2.09-9.09-2.45-13.75C654.08,529.71,653.86,528.72,653.66,527.49z M654.27,497.86
		c0.42-3.3-0.01-6.25-2.01-8.77c-3.33-4.2-7.79-6.31-13.11-6.39c-3.92-0.06-7.7,0.74-10.52,3.75c-2.72,2.91-2.52,3.14,0.42,5.91
		c2.25,2.12,5.23,2.8,8.11,3.63C642.71,497.59,648.41,497.71,654.27,497.86z"/>
	<path d="M522.11,519.96c-3.6-0.31-7.29-0.6-10.98-0.95c-0.7-0.07-1.4-0.35-2.05-0.64c-0.36-0.16-0.88-0.51-0.89-0.79
		c-0.01-0.32,0.4-0.78,0.75-0.95c1.02-0.53,2.07-1.04,3.17-1.4c6.21-2.06,12.49-3.91,18.63-6.14c9.69-3.51,19.09-7.69,28.01-12.89
		c0.64-0.37,0.86-0.75,0.87-1.49c0.11-7.9-1.05-15.6-3.68-23.05c-1.59-4.51-3.43-8.94-4.99-13.46c-2-5.79-2.43-11.8-1.76-17.85
		c1.05-9.49,4.4-18.25,8.86-26.62c3.74-7.01,8.42-13.3,14.65-18.3c6.06-4.87,12.81-8.14,20.82-7.9c5.09,0.15,9.97,1.27,14.38,3.97
		c4.52,2.77,7.47,6.91,9.63,11.64c1.91,4.18,2.89,8.62,3.27,13.18c0.92,10.95-0.5,21.68-3.18,32.28
		c-2.06,8.12-5.06,15.88-9.09,23.23c-4.11,7.51-9.14,14.34-15.24,20.35c-1.84,1.81-4.06,3.22-6.09,4.83
		c-2.41,1.92-4.7,3.99-7.21,5.76c-2.63,1.86-5.32,3.72-8.2,5.11c-4.66,2.25-9.44,4.3-14.29,6.09c-5.85,2.15-11.92,3.61-18.11,4.37
		C533.7,519.04,527.97,519.43,522.11,519.96z M566.31,492.5c0.52-0.29,0.85-0.44,1.14-0.65c3.83-2.81,7.7-5.55,11.45-8.46
		c3.75-2.91,7.42-5.93,11.05-8.98c4.44-3.73,8.6-7.76,12.22-12.31c2.64-3.32,5.05-6.81,6.64-10.77c2.09-5.21,2-10.61,1.21-16.05
		c-1.1-7.62-3.89-14.5-9.29-20.09c-4.83-5.01-10.73-6.92-17.57-5.17c-4.93,1.27-9.12,3.95-12.91,7.29
		c-4.07,3.58-7.43,7.69-9.42,12.79c-1.08,2.78-1.45,5.7-0.47,8.55c1.21,3.54,2.62,7.01,4.04,10.47c1.77,4.31,3.73,8.55,5.45,12.88
		c0.97,2.45,1.49,5.04,1.43,7.72c-0.12,5.92-1.28,11.65-3.04,17.27C567.69,488.78,567.02,490.52,566.31,492.5z"/>
	<path d="M572.38,678.6c-0.02,5.44-1.36,14.47-3.23,23.45c-1.63,7.8-3.88,15.4-7.18,22.66c-2.93,6.43-6.62,12.4-11.15,17.82
		c-5.19,6.22-11.36,11.29-18.32,15.45c-9.83,5.87-20.58,9.15-31.65,11.62c-9.28,2.08-18.64,3.66-28.08,4.79
		c-2.32,0.28-4.69,0.23-7.03,0.32c-0.27,0.01-0.58-0.03-0.82-0.15c-0.34-0.17-0.81-0.39-0.89-0.68c-0.07-0.26,0.24-0.79,0.52-0.94
		c1.44-0.75,2.88-1.51,4.39-2.11c6.2-2.43,12.48-4.66,18.61-7.23c10.78-4.52,20.83-10.44,30.59-16.82
		c7.1-4.64,13.89-9.7,19.88-15.74c1.99-2.01,3.78-4.22,5.61-6.38c0.31-0.36,0.56-0.93,0.53-1.39c-0.23-4.07-0.38-8.14-0.84-12.19
		c-0.7-6.06-1.55-12.11-2.48-18.14c-1.19-7.77-2.47-15.52-3.78-23.27c-1.38-8.1-2.93-16.17-4.25-24.29
		c-1.34-8.27-2.61-16.56-3.65-24.87c-0.69-5.5-1.08-11.05-1.32-16.58c-0.16-3.54,0.07-7.12,1.48-10.48
		c0.15-0.37,0.34-0.73,0.57-1.05c0.83-1.12,1.57-1.25,2.6-0.29c2.55,2.36,5.11,4.71,7.55,7.19c5.41,5.51,10.27,11.48,14.55,17.92
		c6.5,9.79,11.37,20.3,14.41,31.67C571.28,657.41,572.34,666.06,572.38,678.6z M549.56,717.31c0.34-0.39,0.48-0.52,0.59-0.67
		c2.98-4.12,5.57-8.46,7.79-13.04c4.26-8.8,6.67-18.02,6.48-27.84c-0.16-8.55-2.32-16.64-5.85-24.39
		c-4.15-9.11-10.14-16.96-16.9-24.27c-0.11-0.12-0.29-0.16-0.54-0.3c0.68,4.24,1.37,8.32,2,12.42c1.46,9.55,3.02,19.08,4.27,28.66
		c0.95,7.28,1.53,14.61,2.17,21.92c0.62,7.13,0.74,14.29,0.33,21.44C549.79,713.16,549.68,715.07,549.56,717.31z"/>
	<path d="M480.93,549.1c2.28,2.16,4.39,4.35,6.7,6.31c4.69,3.97,9.86,7.09,16.04,8.11c5.4,0.89,10.2-0.15,13.62-4.87
		c1.65-2.27,2.39-4.92,2.99-7.63c0.63-2.88,1.35-5.74,2.12-8.59c0.27-1,0.97-1.85,2.13-1.76c0.54,0.04,1.34,0.42,1.5,0.84
		c0.52,1.36,1.04,2.8,1.14,4.24c0.59,8.77-0.66,17.28-3.87,25.48c-1.45,3.71-3.33,7.15-6.06,10.11c-4.68,5.07-10.61,6.56-17.1,4.26
		c-0.22-0.08-0.44-0.14-0.83-0.27c0.09,1.62,0.24,3.12,0.25,4.61c0.08,7.64-1.07,15.12-3.13,22.46c-1.89,6.71-4.46,13.14-7.87,19.23
		c-3.31,5.91-7.37,11.19-12.64,15.51c-7.08,5.79-15.05,8.25-24.2,6.94c-4.83-0.69-9.48-1.69-13.72-4.24
		c-5.14-3.08-8.87-7.36-11.3-12.8c-2.02-4.51-2.83-9.29-3.16-14.17c-0.66-9.95,0.38-19.79,2.11-29.57
		c0.88-4.95,1.75-9.91,2.61-14.87c0.68-3.9-1.43-6.53-5.35-7.12c-3.35-0.5-5.85,0.99-8.09,3.06c-2.35,2.17-4.42,4.61-5.53,7.72
		c-0.22,0.62-0.66,1.2-1.12,1.68c-0.8,0.83-1.44,0.66-1.66-0.46c-0.16-0.81-0.26-1.67-0.17-2.49c0.7-6.08,1.55-12.12,4.03-17.79
		c2.02-4.62,4.75-8.71,9.15-11.4c2.84-1.73,6.03-2.3,9.32-1.85c1.76,0.24,3,1.33,3.88,2.9c2.38,4.25,2.9,8.92,3.08,13.64
		c0.31,7.83-0.85,15.53-1.97,23.25c-0.99,6.8-1.92,13.62-1.61,20.52c0.19,4.23,0.93,8.35,2.92,12.12c2.41,4.56,6.1,7.74,10.96,9.5
		c5.87,2.13,11.86,2.98,17.98,1.31c5.73-1.57,10.49-4.81,14.56-9.07c6.47-6.76,10.4-14.89,12.44-23.93
		c0.93-4.08,1.62-8.28,0.84-12.48c-0.3-1.64-0.92-3.38-1.9-4.71c-2.18-2.94-4.67-5.66-7.05-8.46c-1.01-1.19-2.09-2.31-3.08-3.52
		c-1.52-1.84-2.12-4.08-2.06-6.38c0.14-4.72,0.7-9.4,2.37-13.86C480.42,550.1,480.69,549.61,480.93,549.1z"/>
	<path d="M643.14,544.12c2.89,2.6,5.57,5.29,8.54,7.63c4.27,3.37,9.03,5.79,14.5,6.73c7.21,1.24,13.01-1.96,15.31-8.93
		c1.01-3.05,1.47-6.28,2.23-9.42c0.25-1.04,0.57-2.08,1-3.06c0.42-0.96,1.16-1.63,2.34-1.52c1.16,0.1,1.58,0.99,1.69,1.89
		c0.35,2.88,0.81,5.78,0.79,8.66c-0.03,6.56-1.38,12.92-3.63,19.08c-1.67,4.58-3.95,8.8-7.57,12.19c-4.58,4.28-9.85,5.05-15.67,3.24
		c-0.3-0.09-0.59-0.21-0.93-0.33c0,1.84-0.02,3.61,0,5.37c0.09,6.1-0.77,12.09-2.14,18.02c-1.6,6.91-4.03,13.52-7.19,19.86
		c-3.16,6.34-7.12,12.14-12.4,16.91c-3.88,3.51-8.2,6.35-13.3,7.81c-3.58,1.02-7.23,1.23-10.92,0.9c-4.3-0.39-8.55-1.06-12.54-2.85
		c-4.27-1.92-7.9-4.66-10.76-8.36c-4.65-6.03-6.24-13.05-6.74-20.48c-0.78-11.59,0.92-22.95,3-34.28c0.61-3.34,1.22-6.67,1.75-10.03
		c0.61-3.84-1.34-6.19-5.19-6.88c-3.51-0.63-6.07,0.95-8.39,3.11c-2.28,2.13-4.28,4.53-5.38,7.54c-0.24,0.66-0.69,1.28-1.16,1.8
		c-0.63,0.69-1.38,0.5-1.61-0.41c-0.19-0.72-0.33-1.52-0.24-2.25c0.69-5.63,1.4-11.25,3.45-16.6c1.68-4.39,4.05-8.32,7.63-11.44
		c3.2-2.78,7.02-3.74,11.14-3.44c1.89,0.14,3.31,1.3,4.23,2.99c1.73,3.17,2.64,6.6,2.78,10.18c0.15,3.99,0.3,8,0.02,11.97
		c-0.36,5.09-1.08,10.16-1.78,15.22c-0.92,6.65-1.88,13.3-1.55,20.04c0.18,3.81,0.82,7.53,2.41,11.04
		c2.12,4.69,5.6,8.05,10.27,10.09c4.95,2.17,10.18,3.01,15.57,2.48c5.24-0.52,9.79-2.79,13.9-5.96
		c7.82-6.01,12.58-14.12,15.56-23.35c1.47-4.53,2.31-9.22,2.36-14c0.04-3.21-0.89-6.17-2.95-8.67c-1.9-2.31-3.9-4.55-5.86-6.81
		c-1.13-1.3-2.29-2.56-3.4-3.87c-1.57-1.85-2.27-4.06-2.24-6.43c0.06-4.78,0.77-9.46,2.37-13.98
		C642.64,545,642.94,544.52,643.14,544.12z"/>
	<path d="M472.99,402.09c0.23,2.68,0.45,5.25,0.68,7.87c-2.62,0.52-5.2,0.99-7.75,1.56c-9.77,2.21-18.63,6.35-26.48,12.58
		c-5.47,4.34-9.94,9.57-13.42,15.63c-3.31,5.77-5.56,11.93-6.68,18.47c-0.86,4.98-0.88,10-0.38,15.05c0.66,6.7,2.3,13.11,5.07,19.23
		c4.13,9.14,9.77,17.12,17.9,23.15c4.21,3.12,8.77,5.53,13.99,6.51c5.22,0.99,10.35,0.4,15.38-1.11c7.87-2.37,14.7-6.54,20.63-12.19
		c5.37-5.11,9.48-11.08,12.1-18.05c1.39-3.69,2.88-7.35,4.13-11.09c2.41-7.21,4.01-14.6,5-22.14c1.03-7.85,1.08-15.7,0.33-23.55
		c-0.78-8.09-2.64-15.97-5.22-23.68c-0.55-1.66-1.15-3.3-1.77-5.05c2.46-1.02,4.85-2.01,7.36-3.05c0.38,1.44,0.8,2.79,1.1,4.17
		c1.55,7.09,3.23,14.16,4.57,21.29c1.76,9.36,2.71,18.83,2.46,28.36c-0.16,6.14-0.61,12.27-1.17,18.39
		c-0.79,8.71-2.89,17.18-5.98,25.32c-1.8,4.74-4.38,9.22-6.91,13.65c-3.2,5.61-7.27,10.61-11.93,15.08
		c-7.25,6.94-15.74,11.51-25.78,12.93c-6.43,0.91-12.75,0.52-18.86-1.83c-5.16-1.98-9.76-4.91-13.95-8.48
		c-8.25-7.03-14.11-15.79-18.42-25.65c-2.78-6.35-4.83-12.93-5.97-19.77c-1.24-7.35-1.57-14.76-1.03-22.21
		c0.53-7.26,2.06-14.28,4.76-21.04c3.4-8.52,8.47-15.91,15.24-22.09c6.23-5.68,13.35-9.96,21.19-13.06c5.89-2.33,11.96-3.95,18.2-5
		C471.86,402.21,472.37,402.17,472.99,402.09z"/>
	<path d="M317.02,586.96c0.4,1.93,0.83,3.86,1.19,5.8c1.76,9.74,3.3,19.52,5.31,29.2c2.08,10.03,4.42,20.01,7,29.92
		c2.26,8.69,5.24,17.17,9.32,25.2c1.99,3.92,4.09,7.78,7.24,10.95c1.89,1.91,4.24,2.97,6.65,4.1c3.37,1.58,6.17,0.18,9-0.97
		c5.52-2.25,10.02-5.94,13.38-10.87c3.83-5.63,3.07-11.61-2.07-16.1c-1.81-1.58-3.93-2.81-5.89-4.19c-0.99,1.44-1.83,2.65-2.66,3.86
		c-0.13-0.06-0.27-0.13-0.4-0.19c0-0.29-0.04-0.58,0.01-0.86c1.49-8,2.8-16.05,5.28-23.82c1.36-4.27,1.7-4.18,5.87-3.05
		c3.24,0.88,5.3,3.27,6.83,6.16c2.4,4.53,3.44,9.4,3.82,14.47c0.48,6.31-0.07,12.54-1.28,18.72c-1.71,8.73-4.71,16.99-9.64,24.46
		c-3.08,4.67-6.75,8.82-11.47,11.91c-3.37,2.2-7.1,3.67-11.11,3.64c-1.95-0.02-3.97-1.07-5.81-1.96c-4.1-1.97-6.8-5.46-9.3-9.12
		c-5.19-7.59-8.69-16-11.4-24.7c-2.45-7.87-4.57-15.86-6.55-23.86c-1.72-6.93-3.16-13.93-4.51-20.94
		c-1.5-7.75-2.76-15.55-4.12-23.33c-0.24-1.38-0.49-2.75-0.7-4.13c-0.71-4.51,0.72-8.7,2-12.89c0.62-2.01,1.54-3.93,2.4-5.85
		c0.27-0.6,0.77-1.09,1.16-1.63C316.71,586.93,316.87,586.94,317.02,586.96z"/>
	<path d="M510.24,391.39c-3.06,1.28-6.06,2.54-9.12,3.82c-6.43-10.39-13.16-20.6-21.34-29.98c0,2-0.08,3.77,0.02,5.52
		c0.25,4.43,0.52,8.86,0.91,13.27c0.69,8,1.49,15.99,2.21,23.98c0.48,5.33,0.88,10.67,1.39,16c0.5,5.25,1.08,10.48,1.62,15.73
		c0.5,4.97,1,9.93,1.48,14.9c0.7,7.27,1.5,14.54,2.04,21.83c0.31,4.13,0.27,8.3,0.21,12.44c-0.05,3.5-0.34,7.01-0.58,10.51
		c-0.05,0.71-0.35,1.39-0.54,2.09c-0.14,0.01-0.27,0.02-0.41,0.03c-0.24-0.47-0.6-0.92-0.69-1.42c-0.75-3.83-1.55-7.66-2.14-11.52
		c-0.79-5.21-1.42-10.44-2.07-15.66c-0.65-5.19-1.23-10.38-1.85-15.57c-0.78-6.54-1.56-13.08-2.36-19.61
		c-0.81-6.66-1.64-13.31-2.45-19.97c-0.86-7.05-1.8-14.1-2.52-21.16c-0.59-5.8-0.86-11.63-1.34-17.44
		c-0.58-7.16-1.21-14.32-1.85-21.48c-0.56-6.29-1.15-12.57-1.73-18.86c-0.12-1.35-0.41-2.7-0.38-4.05c0.03-1.53,0.22-3.09,0.57-4.59
		c0.24-1.05,0.92-1.14,1.66-0.4c6.13,6.15,11.92,12.6,16.71,19.86c3.96,5.99,7.84,12.05,11.51,18.22
		c4.29,7.22,7.7,14.88,10.78,22.68C510.1,390.8,510.15,391.07,510.24,391.39z"/>
	<path d="M385.63,610.9c-0.24,4.36-0.77,9.19-3.02,13.65c-0.37,0.74-0.83,1.47-1.39,2.08c-1.49,1.6-3.1,1.3-3.91-0.72
		c-0.59-1.48-0.94-3.08-1.66-4.48c-0.87-1.68-1.79-3.45-3.11-4.77c-2.62-2.63-7.95-3.18-11.31,0.11c-3.66,3.58-6,7.97-7.74,12.67
		c-2.43,6.58-4.62,13.26-6.92,19.89c-0.18,0.53-0.4,1.05-0.69,1.52c-0.38,0.64-0.81,1.56-1.69,1.16c-0.71-0.33-1.63-1.06-1.72-1.71
		c-0.21-1.51-0.2-3.13,0.11-4.62c1-4.72,1.91-9.48,3.35-14.08c2.16-6.92,4.5-13.8,7.19-20.52c2.36-5.89,5.38-11.51,10-16.05
		c4.42-4.33,8.79-5.19,14.2-2.81c2.37,1.05,3.9,2.98,5.16,5.16C384.8,601.38,385.52,605.8,385.63,610.9z"/>
	<path d="M716.83,590.55c0.45-3.74-0.62-7.18-2.12-10.45c-2.31-5.08-4.78-10.08-7.25-15.08c-3.29-6.67-3.33-13.38-0.29-20.09
		c2.14-4.71,5.75-5.46,10.36-3.17c4.08,2.02,5.99,5.86,6.69,10.23c0.29,1.79,0.15,3.66,0.08,5.48c-0.05,1.48-0.79,2-2.11,1.4
		c-0.89-0.4-1.79-1.06-2.38-1.84c-1.43-1.91-3.06-3.48-5.39-4.17c-2.62-0.78-4.46,0.92-3.72,3.56c0.46,1.64,1.24,3.19,1.91,4.76
		c1.78,4.18,3.66,8.32,5.34,12.54c1.83,4.62,2.84,9.45,3.47,14.38c0.47,3.65,1.01,7.3,0.42,10.97c-0.31,1.95-0.85,3.89-1.52,5.75
		c-0.26,0.74-1.05,1.39-1.76,1.85c-1.12,0.73-2.33,0.55-2.87-0.65c-0.94-2.04-1.71-4.2-2.24-6.38c-0.97-3.94-2.35-7.64-5.21-10.6
		c-0.96-1-2.11-1.83-3.24-2.64c-0.27-0.19-0.96-0.17-1.21,0.05c-2.98,2.58-9.75,0.4-11.49-3.02c-1.59-3.13-1.94-6.2-0.49-9.42
		c0.8-1.77,2.13-2.62,4.13-2.71c4.26-0.19,7.5,1.95,10.51,4.51c3.85,3.28,6.73,7.34,8.92,11.9
		C715.84,588.67,716.35,589.6,716.83,590.55z"/>
	<path d="M449.78,472.04c-2.97,2.94-10.08,1.13-11.69-3.14c-0.84-2.24-1.41-4.39-0.58-6.74c1.24-3.48,2.35-4.19,6.28-3.75
		c3.17,0.36,5.68,2.23,8.03,4.25c4.11,3.54,6.88,8.04,9.17,12.89c0.13,0.28,0.28,0.55,0.42,0.82c0.13-0.02,0.26-0.05,0.39-0.07
		c-0.26-1.76-0.33-3.58-0.82-5.28c-1.63-5.66-4.11-10.98-7.04-16.08c-2.56-4.43-4.09-9.08-3.5-14.27c0.35-3.05,1.06-5.97,2.81-8.55
		c1.78-2.62,5.19-3.31,8.46-1.62c4.22,2.18,6.05,5.97,6.71,10.43c0.21,1.41,0.08,2.87,0.01,4.31c-0.07,1.47-0.78,2.02-2.12,1.46
		c-0.83-0.34-1.63-1.02-2.16-1.75c-1.23-1.7-2.68-3.05-4.68-3.76c-1.14-0.41-2.27-0.6-3.24,0.37c-0.95,0.95-0.96,2.11-0.49,3.23
		c1.44,3.38,2.97,6.71,4.43,10.07c2.6,5.99,4.66,12.13,5.43,18.66c0.44,3.69,1.04,7.37,0.42,11.08c-0.27,1.64-0.73,3.27-1.23,4.86
		c-0.42,1.33-1.46,2.14-2.86,2.19c-1.33,0.05-2-1.02-2.35-2.08c-0.67-2.04-1.16-4.14-1.72-6.22
		C456.58,478.63,454.21,474.64,449.78,472.04z"/>
	<path d="M403.55,669.39c-3.13,1.9-7.16,1.51-9.45-0.89c-2.54-2.66-3.05-7.23-1.12-10.22c0.72-1.12,1.72-1.68,3.08-1.74
		c3.78-0.19,6.65,1.72,9.32,4c3.8,3.25,6.43,7.37,8.48,11.89c0.12,0.25,0.25,0.5,0.39,0.74c0.03,0.05,0.13,0.07,0.35,0.17
		c0.05-2.31-0.38-4.45-1.09-6.55c-1.8-5.35-4.38-10.35-7.08-15.29c-2.98-5.46-3.1-11.13-0.95-16.87c0.41-1.1,1.06-2.18,1.82-3.07
		c1.47-1.73,3.46-2,5.58-1.47c3.74,0.92,5.8,3.57,7.17,6.95c1.02,2.52,1.07,5.13,0.77,7.78c-0.12,1.08-0.79,1.46-1.65,1.01
		c-0.88-0.46-1.77-1.08-2.37-1.86c-1.1-1.43-2.35-2.6-4.04-3.26c-1.09-0.43-2.21-0.61-3.15,0.26c-0.9,0.84-0.92,1.96-0.49,3
		c1.02,2.51,2.1,5,3.22,7.46c2.49,5.46,4.66,11.02,5.58,16.99c0.8,5.17,1.71,10.35,0.12,15.53c-0.28,0.9-0.6,1.85-1.17,2.58
		c-1.26,1.59-3.13,1.43-3.9-0.43c-0.83-2.01-1.35-4.15-1.92-6.26c-1.03-3.85-2.84-7.18-6.1-9.6c-0.22-0.17-0.45-0.34-0.69-0.48
		C404.04,669.63,403.78,669.51,403.55,669.39z"/>
	<path d="M484.71,408.62c-0.27-2.75-0.54-5.36-0.8-8.03c3.05-0.48,6.03-0.96,9.02-1.42c4.89-0.76,9.44-2.6,14.02-4.34
		c3.33-1.26,6.79-2.2,9.94-3.98c6.26-3.54,11.97-7.81,17.15-12.76c3.2-3.06,6.22-6.31,9.33-9.47c0.32-0.33,0.67-0.62,1-0.93
		c0.1,0.05,0.19,0.1,0.29,0.15c-0.1,0.52-0.11,1.09-0.31,1.56c-3.43,7.99-8.23,15.02-14.65,20.93c-3.63,3.35-7.49,6.39-11.98,8.48
		c-4.12,1.92-8.34,3.65-12.58,5.28c-5.61,2.15-11.52,3.16-17.43,4.1C486.77,408.35,485.82,408.46,484.71,408.62z"/>
	<path d="M563.86,562.69c-1.97,1.38-3.86,2.89-5.94,4.1c-5.88,3.42-12.32,4.32-18.96,3.54c-4.69-0.55-7.59-3.8-7.12-7.88
		c0.28-2.43,0.9-4.87,1.73-7.18c1.27-3.53,3.5-6.53,5.85-9.42c0.12-0.15,0.23-0.31,0.39-0.51c-1.16-0.63-2.34-1.14-3.36-1.87
		c-2.49-1.77-3.2-4.51-2.06-7.57c1.16-3.11,3.28-5.58,5.68-7.75c1.73-1.56,3.67-2.93,5.63-4.21c0.93-0.6,2.13-1.03,3.19,0.04
		c1.15,1.16,1.7,3.06,0.97,4.27c-0.92,1.51-2.06,2.9-3.15,4.4c-0.43-0.81-0.67-1.4-1.03-1.92c-0.77-1.11-2.24-1.47-3.24-0.6
		c-1.21,1.06-2.23,2.35-3.26,3.6c-0.49,0.59-0.3,1.22,0.16,1.85c2.44,3.31,6.88,3.87,10.27,1.22c1.76-1.38,3.47-2.82,5.21-4.23
		c0.27-0.22,0.55-0.41,0.98-0.72c0.38,1.98-0.07,3.66-0.76,5.26c-0.87,1.99-2.13,3.6-4.08,4.83c-6.09,3.84-11.21,8.72-15.03,14.88
		c-0.4,0.64-0.7,1.36-0.91,2.08c-0.49,1.72,0.04,3.03,1.52,4.04c1.77,1.21,3.82,1.35,5.84,1.53c6.32,0.55,12.51-0.3,18.63-1.79
		c0.84-0.21,1.72-0.31,2.57-0.46C563.69,562.37,563.77,562.53,563.86,562.69z"/>
	<path d="M630.22,755.4c-0.42,4.43-1.62,8.02-3.08,11.52c-0.83,1.98-1.88,3.86-2.87,5.77c-0.46,0.89-1.07,1.02-2.06,0.54
		c-4.78-2.29-9.6-4.5-14.42-6.69c-0.71-0.32-0.97-0.63-0.79-1.42c1.23-5.53,2.69-11,4.82-16.26c0.75-1.84,1.19-2.04,3.09-1.57
		c4.6,1.13,8.99,2.8,12.98,5.39C629.05,753.44,630.37,754.23,630.22,755.4z"/>
	<path d="M385.07,428.21c-0.42,3.97-1.68,7.71-3.19,11.36c-0.7,1.69-1.54,3.33-2.46,4.92c-0.78,1.35-1.14,1.42-2.53,0.76
		c-3.68-1.73-7.34-3.51-11.02-5.24c-0.97-0.46-1.97-0.9-3-1.19c-1.04-0.3-1.17-0.91-0.93-1.8c0.84-3.2,1.62-6.42,2.55-9.6
		c0.63-2.14,1.41-4.24,2.22-6.32c0.78-2.02,1.19-2.2,3.23-1.65c4.61,1.23,9.07,2.83,13.05,5.52
		C384.12,425.73,385.25,426.56,385.07,428.21z"/>
	<path d="M524.46,602.1c-0.6,2.39-1.01,4.85-1.85,7.16c-1.1,3.02-2.44,5.97-3.86,8.86c-0.84,1.69-1.13,1.69-2.8,0.91
		c-2.56-1.19-5.09-2.47-7.66-3.66c-2.1-0.97-4.19-1.96-6.36-2.77c-0.94-0.35-1.03-0.8-0.83-1.58c0.84-3.2,1.59-6.43,2.53-9.6
		c0.7-2.36,1.61-4.67,2.5-6.97c0.51-1.34,1.03-1.59,2.39-1.25c5.01,1.27,9.85,2.97,14.12,6C523.9,600.08,524.33,600.86,524.46,602.1
		z"/>
	<path d="M473.67,590.74c-0.43,1.72-0.83,4.18-1.68,6.48c-1.14,3.09-2.52,6.1-3.99,9.06c-0.82,1.64-1.08,1.55-2.73,0.78
		c-4.69-2.19-9.41-4.33-14.1-6.54c-0.34-0.16-0.74-0.79-0.67-1.12c1.14-5.76,2.61-11.42,4.98-16.82c0.76-1.73,0.95-1.73,2.74-1.29
		c4.6,1.13,8.98,2.79,13,5.33C472.46,587.41,473.71,588.26,473.67,590.74z"/>
	<path d="M690.67,598.66c-0.24,1.11-0.49,2.77-0.96,4.37c-1.14,3.95-2.47,7.84-4.67,11.36c-0.92,1.47-1.14,1.5-2.69,0.78
		c-4.73-2.2-9.46-4.41-14.22-6.54c-0.76-0.34-0.81-0.76-0.64-1.39c1.27-4.57,2.5-9.14,3.84-13.69c0.38-1.29,1.06-2.49,1.63-3.71
		c0.29-0.63,0.78-0.79,1.48-0.64c4.91,1.08,9.55,2.82,13.8,5.51C689.47,595.48,690.76,596.33,690.67,598.66z"/>
	<path d="M635.42,595.49c-0.45,3.98-1.82,7.97-3.47,11.87c-0.61,1.43-1.33,2.82-2.1,4.17c-0.82,1.43-1.24,1.48-2.68,0.81
		c-4.69-2.19-9.39-4.37-14.11-6.51c-0.71-0.32-0.97-0.65-0.8-1.44c1.17-5.47,2.63-10.85,4.71-16.04c0.18-0.44,0.43-0.85,0.65-1.28
		c0.39-0.76,0.98-0.94,1.79-0.74c4.83,1.18,9.46,2.87,13.68,5.54C634.31,592.63,635.53,593.5,635.42,595.49z"/>
	<path d="M561.1,393.14c-0.02,1.9-1.18,4.62-2.42,7.3c-2.33,5.02-5.85,9.22-9.44,13.35c-0.88,1.01-2.16,1.76-3.4,2.32
		c-1.11,0.5-1.89-0.27-1.46-1.42c0.52-1.4,1.21-2.77,2.06-4c2.17-3.12,4.28-6.27,5.63-9.84c0.8-2.12,0.53-4.27-0.85-6.13
		c-1.23-1.67-3.27-2.04-4.98-0.84c-1.13,0.79-2.07,1.85-3.09,2.78c-0.91,0.83-1.73,1.78-2.75,2.44c-1.12,0.72-2.15,0.11-2.08-1.23
		c0.06-1.21,0.31-2.46,0.75-3.59c1.48-3.81,3.31-7.44,6.45-10.22c1.57-1.39,3.31-2.51,5.37-3.04c3.09-0.8,5.94,0.32,7.7,2.97
		C559.96,386.04,561.09,389.65,561.1,393.14z"/>
	<path d="M649.9,434.48c-0.22,2.6-1.46,5.95-3.33,8.97c-1.97,3.18-4.2,6.2-6.47,9.18c-1.17,1.54-2.59,2.92-4.07,4.17
		c-0.59,0.5-1.95,0.86-2.44,0.52c-0.94-0.64-0.44-1.89,0.03-2.71c0.96-1.69,2.19-3.24,3.17-4.92c1.47-2.51,3.03-5,4.15-7.66
		c0.95-2.25,0.42-4.59-1.28-6.47c-1.2-1.33-3.54-1.39-5.13-0.06c-1.16,0.96-2.12,2.15-3.2,3.21c-0.59,0.58-1.18,1.22-1.89,1.62
		c-1.39,0.79-2.53,0.16-2.31-1.39c0.25-1.7,0.84-3.38,1.47-5c1.56-3.98,3.91-7.4,7.44-9.91c3.14-2.23,6.79-2.55,9.4-0.75
		c0.55,0.38,1.06,0.86,1.48,1.37C648.54,426.61,649.97,430.9,649.9,434.48z"/>
	<path d="M705.76,499.29c4.34,0,6.3,1.94,7.67,4.76c2.08,4.31,1.97,8.55,0.08,12.93c-2.72,6.3-6.81,11.59-11.55,16.45
		c-0.56,0.57-1.39,0.95-2.17,1.2c-1.12,0.36-1.83-0.27-1.45-1.38c0.47-1.37,1.12-2.73,1.94-3.92c2.2-3.15,4.3-6.34,5.73-9.92
		c0.91-2.28,0.46-4.42-0.94-6.32c-1.18-1.59-3.15-1.92-4.79-0.77c-1.16,0.81-2.12,1.9-3.18,2.86c-0.91,0.82-1.74,1.76-2.75,2.43
		c-1.05,0.7-1.98,0.23-2-1.02c-0.02-1.16,0.17-2.39,0.56-3.47c1.51-4.12,3.47-7.98,6.93-10.87
		C701.85,500.57,704.03,499.31,705.76,499.29z"/>
	<path d="M415.27,421.61c1.34-1.4,2.67-2.82,4.03-4.2c4.4-4.42,8.77-8.86,12.39-13.96c1.17-1.64,2.02-3.51,2.96-5.31
		c0.25-0.48,0.34-1.07,0.37-1.62c0.27-4.14-2.51-6.48-6.69-5.49c-1.4,0.33-2.69,1.16-4.04,1.72c-0.41,0.17-0.88,0.21-1.33,0.31
		c-0.02-0.44-0.12-0.91-0.04-1.33c0.61-3.08,1.6-6,3.5-8.56c2.45-3.31,7.12-4.9,11.02-3.68c2.73,0.86,4.17,2.86,4.6,5.59
		c0.71,4.55-0.28,8.82-2.34,12.86c-4.46,8.72-10.86,15.72-19.05,21.07c-1.65,1.07-3.35,2.05-5.03,3.07
		C415.51,421.93,415.39,421.77,415.27,421.61z"/>
	<path d="M537.33,477.4c-0.94,3.82-1.77,7.69-4.46,10.79c-2.17,2.5-6.02,1.89-7.04-1.26c-0.65-2.01-0.9-4.22-0.92-6.34
		c-0.03-4.45,1.36-8.65,2.92-12.77c0.82-2.16,1.72-4.29,2.6-6.43c4.15-10.09,3.3-19.66-2.99-28.65c-1.19-1.7-2.53-3.28-3.85-4.88
		c-0.61-0.74-0.79-1.41-0.2-2.26c0.77-1.12,1.5-2.26,2.19-3.43c0.46-0.78,0.91-0.88,1.59-0.24c4.25,4.01,6.98,8.86,8.26,14.56
		c2.12,9.47,0.49,18.45-3.29,27.23c-1.56,3.61-2.84,7.36-3.96,11.14c-0.59,1.98-0.34,4.14,0.54,6.1c0.92,2.07,3.04,2.59,4.68,1.02
		c1.11-1.07,1.97-2.4,2.92-3.62c0.26-0.33,0.45-0.71,0.68-1.07C537.11,477.32,537.22,477.36,537.33,477.4z"/>
	<path d="M586.14,646.33c0.28,3.88,0.71,7.8-0.91,11.51c-1.43,3.3-5.12,3.68-7.32,0.83c-2.03-2.63-2.87-5.76-3.39-8.97
		c-0.96-5.94-0.14-11.87,0.19-17.81c0.29-5.14-0.54-10.11-2.89-14.76c-2.1-4.14-5.14-7.5-8.83-10.27c-1.59-1.2-3.27-2.28-4.97-3.33
		c-1.02-0.63-1.48-1.34-1.06-2.56c0.39-1.13,0.71-2.29,0.93-3.47c0.2-1.05,0.66-1.24,1.57-0.8c2.8,1.34,5.33,3.05,7.55,5.22
		c4.64,4.52,7.24,10.15,8.92,16.29c1.31,4.8,1.44,9.7,1.18,14.63c-0.21,4.02-0.53,8.04-0.65,12.07c-0.07,2.4,0.73,4.65,2.01,6.68
		c1.59,2.54,4.26,2.47,5.62-0.21c0.62-1.23,0.94-2.62,1.39-3.94c0.13-0.39,0.24-0.79,0.36-1.18
		C585.95,646.29,586.04,646.31,586.14,646.33z"/>
	<path d="M315.79,552.43c-0.97,1.59-1.97,3.16-2.9,4.77c-1.97,3.43-3.46,7-3.11,11.1c0.28,3.31,2.73,5.54,6.07,5.5
		c2.1-0.03,3.96-0.71,5.71-1.86c-1.7,4.27-4.29,7.72-8.35,10.05c-3.42,1.97-7.9-0.72-8.73-3.88c-0.8-3.03-0.51-5.95,0.4-8.84
		c1.83-5.77,4.66-11.01,8.61-15.62c0.54-0.62,1.28-1.07,1.92-1.6C315.55,552.18,315.67,552.3,315.79,552.43z"/>
	<path d="M373.96,739.22c-1.63,4.06-4.08,7.42-7.82,9.8c-3.99,2.54-8.97-0.36-9.58-4.84c-0.54-4.04,0.49-7.78,2.06-11.37
		c1.95-4.47,4.29-8.74,7.72-12.3c0.4-0.42,0.97-0.67,1.47-1c0.1,0.1,0.2,0.2,0.3,0.31c-0.87,1.44-1.75,2.86-2.61,4.31
		c-1.88,3.19-3.37,6.51-3.42,10.32c-0.05,3.77,2.04,6.42,5.55,6.68C369.92,741.29,372.04,740.62,373.96,739.22z"/>
	<path d="M595.8,778.64c-1.84,4.23-4.3,7.56-8.04,9.88c-3.96,2.46-8.38-0.47-9.21-3.71c-0.73-2.81-0.51-5.56,0.29-8.26
		c1.81-6.13,4.78-11.64,9.05-16.43c0.44-0.5,1.08-0.83,1.62-1.24c0.11,0.1,0.22,0.2,0.33,0.3c-0.94,1.57-1.91,3.12-2.82,4.71
		c-1.74,3.04-3.06,6.17-3.22,9.78c-0.25,5.53,4.18,8.09,9.1,6.39C593.83,779.75,594.67,779.21,595.8,778.64z"/>
	<path d="M486.36,669.87c-0.8,2.25-1.25,4.56-2.39,6.45c-1.93,3.19-4.26,6.15-6.51,9.14c-0.5,0.67-1.34,1.11-2.09,1.56
		c-0.28,0.17-0.91,0.22-1.07,0.05c-0.24-0.26-0.37-0.84-0.24-1.17c0.31-0.81,0.77-1.57,1.21-2.32c1.36-2.34,2.78-4.64,4.11-7
		c0.87-1.55,0.54-3.1-0.31-4.55c-0.76-1.3-2.24-1.73-3.52-0.9c-0.95,0.62-1.74,1.5-2.58,2.28c-0.47,0.43-0.86,0.97-1.39,1.3
		c-0.39,0.24-1.09,0.42-1.4,0.23c-0.33-0.21-0.58-0.95-0.47-1.35c1.29-4.9,3.43-9.22,8.44-11.35c2.26-0.96,4.87-0.14,6,2.03
		C485.06,665.99,485.61,667.92,486.36,669.87z"/>
	<path d="M615.38,662.4c-1.88,4.43-3.9,8.8-5.59,13.3c-1.68,4.48-3.13,9.06-3.07,13.94c0.02,1.31,0.19,2.64,0.51,3.9
		c0.3,1.2,0.81,2.47,2.17,2.8c1.35,0.33,2.57-0.34,3.42-1.32c1.15-1.31,2.11-2.79,3.14-4.21c0.14-0.19,0.25-0.39,0.55-0.87
		c0.05,0.62,0.14,0.95,0.08,1.26c-0.65,3.57-1.86,6.93-4.01,9.89c-1.73,2.39-3.91,3.32-6.04,2.51c-2.02-0.77-2.73-2.57-3.24-4.45
		c-0.75-2.8-0.45-5.63-0.08-8.45c0.69-5.31,2.53-10.29,4.65-15.16c1.49-3.43,3.25-6.74,5.02-10.04c0.63-1.17,1.62-2.15,2.44-3.22
		L615.38,662.4z"/>
	<path d="M357.77,503.3c-3.2,6.45-6.04,12.77-7.81,19.52c-0.97,3.69-1.69,7.4-0.78,11.23c0.34,1.44,0.76,2.92,2.31,3.37
		c1.56,0.44,2.79-0.56,3.73-1.66c1.19-1.38,2.21-2.9,3.34-4.41c0.05,0.11,0.17,0.24,0.15,0.36c-0.72,4.49-2.04,8.74-5.47,11.95
		c-2.45,2.29-5.82,1.49-7.2-1.54c-1.32-2.89-1.16-5.91-0.87-8.95c0.67-7.11,3.4-13.58,6.28-20c1.42-3.17,2.94-6.3,5.29-8.92
		c0.19-0.21,0.35-0.44,0.54-0.64C357.36,503.52,357.48,503.48,357.77,503.3z"/>
	<path d="M545.6,578.9c5.49,0.83,9.27,4.3,8.4,8.72c-0.5,2.56-2.03,3.86-4.66,3.91c-3.53,0.07-6.54-1.36-9.31-3.32
		c-5.31-3.74-9.29-8.6-12.05-14.48c-0.1-0.21-0.17-0.43-0.08-0.81c0.37,0.35,0.76,0.69,1.11,1.05c3.12,3.26,6.19,6.57,9.37,9.77
		c0.91,0.92,2.08,1.62,3.21,2.27c1.41,0.8,2.99,0.93,4.26-0.2c1.26-1.12,1.25-2.7,0.81-4.23C546.41,580.73,546,579.91,545.6,578.9z"
		/>
	<path d="M448.81,706.7c-1.11,3.11-2.29,6.2-3.32,9.34c-1.17,3.56-2.49,7.1-2.6,10.9c-0.04,1.46-0.02,2.99,0.35,4.38
		c0.79,3,3.45,3.6,5.51,1.3c1.14-1.27,2.07-2.72,3.18-4.21c0,0.34,0.05,0.63-0.01,0.89c-0.72,3.16-1.58,6.27-3.45,8.99
		c-1.48,2.15-3.14,2.89-5.27,2.37c-1.89-0.46-3.37-2.15-3.51-4.49c-0.15-2.46-0.24-4.96,0.05-7.4c0.97-8.05,4.28-15.23,8.65-21.97
		c0.06-0.09,0.17-0.16,0.26-0.24L448.81,706.7z"/>
	<path d="M396.94,604.04c0.15-4.34,3.3-9.14,8.48-7.81c1.9,0.48,2.94,2.07,3.02,4.34c0.11,2.81-0.74,5.35-2.11,7.74
		c-3.21,5.61-7.68,9.94-13.35,13.04c-0.16,0.08-0.34,0.12-0.64,0c1.62-1.68,3.32-3.29,4.85-5.05c2.03-2.34,4.06-4.72,5.84-7.25
		c0.69-0.99,0.93-2.44,0.97-3.69c0.05-1.44-0.95-2.37-2.38-2.27C400.07,603.2,398.53,603.7,396.94,604.04z"/>
	<path d="M692.15,642.96c2.07-2.14,4.03-3.97,5.75-6c1.96-2.3,3.83-4.69,5.5-7.2c1.15-1.73,0.94-3.55-0.06-4.56
		c-0.98-1-2.9-1.1-4.72-0.23c-0.56,0.27-1.09,0.58-1.67,0.88c-0.58-4.94,4.09-9.39,8.46-8.22c1.46,0.39,2.32,1.3,2.72,2.73
		c0.75,2.65,0.22,5.21-0.9,7.57c-3.11,6.55-7.99,11.47-14.37,14.9C692.76,642.87,692.64,642.86,692.15,642.96z"/>
	<path d="M619.45,558.22c0.44-5.48,3.5-8.83,7.46-8.49c2.27,0.19,3.72,1.53,4.02,3.83c0.42,3.17-0.58,6-2.12,8.67
		c-3.06,5.3-7.29,9.44-12.58,12.51c-0.28,0.16-0.57,0.29-0.86,0.42c-0.06,0.03-0.15,0-0.43,0c0.57-0.63,1.04-1.17,1.53-1.7
		c2.5-2.74,5.06-5.43,7.49-8.23c0.88-1.01,1.57-2.21,2.2-3.4c0.92-1.74,0.73-3.41-0.35-4.43c-0.95-0.89-3.03-0.98-4.52-0.18
		C620.72,557.51,620.18,557.82,619.45,558.22z"/>
	<path d="M440.11,574.83c1.24-1.27,2.55-2.48,3.72-3.82c2.29-2.65,4.52-5.36,6.74-8.08c0.39-0.48,0.63-1.11,0.89-1.69
		c0.62-1.4,0.57-2.84-0.51-3.91c-1.22-1.21-2.81-0.91-4.27-0.35c-0.71,0.27-1.38,0.69-2.39,1.21c0.77-3.2,1.38-6.05,4.12-7.75
		c1.68-1.04,3.52-1.04,5.32-0.43c1.6,0.54,2.48,2.67,2.39,4.95c-0.14,3.81-1.89,6.95-4.01,9.94c-2.92,4.1-6.63,7.33-10.99,9.83
		c-0.24,0.14-0.5,0.22-0.75,0.33L440.11,574.83z"/>
	<path d="M403.31,460.91c-1.4,3.31-2.87,6.44-4.04,9.69c-1.08,2.99-2.09,6.05-2.07,9.29c0.01,1.14,0.19,2.31,0.52,3.4
		c0.57,1.89,1.95,2.32,3.47,1.06c0.84-0.7,1.47-1.67,2.17-2.53c0.25-0.3,0.42-0.66,0.79-1.26c0,0.57,0.03,0.85-0.01,1.12
		c-0.4,2.8-1.53,5.29-3.36,7.42c-1.78,2.06-4.69,1.44-5.63-1.12c-1.06-2.87-0.76-5.8-0.11-8.63c1.44-6.21,3.7-12.11,7.34-17.42
		c0.16-0.23,0.33-0.45,0.51-0.66C403,461.17,403.13,461.08,403.31,460.91z"/>
	<path d="M579.96,417.1c0.18,0.97,0.44,1.92,0.54,2.9c0.76,7.15,1.43,14.31,2.24,21.45c0.67,5.91,1.45,11.81,2.27,17.7
		c0.67,4.78,1.45,9.54,2.2,14.31c0.12,0.76,0.01,1.31-0.69,1.84c-2.85,2.12-5.64,4.32-8.6,6.61c-0.26-1.45-0.54-2.75-0.72-4.06
		c-0.68-5.18-1.4-10.37-1.97-15.56c-0.79-7.22-1.48-14.46-2.2-21.69c-0.17-1.75-0.53-3.52-0.4-5.24c0.17-2.17,0.59-4.35,1.2-6.44
		c1.07-3.64,2.42-7.19,4.5-10.4c0.36-0.55,0.82-1.03,1.24-1.54C579.69,417.01,579.83,417.05,579.96,417.1z"/>
</g>
</svg>
