<?xml version="1.0" encoding="UTF-8"?>
<svg width="192" height="23" version="1.1" viewBox="0 0 50.8 6.0854" xmlns="http://www.w3.org/2000/svg" xmlns:cc="http://creativecommons.org/ns#" xmlns:dc="http://purl.org/dc/elements/1.1/" xmlns:rdf="http://www.w3.org/1999/02/22-rdf-syntax-ns#">
 <metadata>
  <rdf:RDF>
   <cc:Work rdf:about="">
    <dc:format>image/svg+xml</dc:format>
    <dc:type rdf:resource="http://purl.org/dc/dcmitype/StillImage"/>
    <dc:title/>
   </cc:Work>
  </rdf:RDF>
 </metadata>
 <g>
  <g transform="translate(-12.502 -.075769)" style="display:none" aria-label="عبدالله الثاني">
   <path d="m47.024 3.7909h2.3754l10.456-0.88123-11.512 0.075769c-0.07556 4.973e-4 -0.13987-0.025723-0.19292-0.07717-0.05305-0.051447-0.0828-0.11736-0.08923-0.19775 0-0.073955 0.02251-0.13264 0.06752-0.17604 0.04501-0.045016 0.08119-0.073955 0.10852-0.086816 0.02733-0.012862 0.0627-0.019293 0.10611-0.019293 0.12862 0 0.21222 0.053858 0.2508 0.16158l0.61254-0.40032c-0.085209-0.1672-0.20981-0.30305-0.37379-0.40755-0.16399-0.1045-0.33842-0.15675-0.52331-0.15675-0.28296 0-0.52251 0.10531-0.71865 0.31592-0.19614 0.209-0.29421 0.45981-0.29421 0.75241 0 0.086816 0.01125 0.18408 0.03376 0.2918h-0.29903z" style="stroke-width:.26458"/>
   <path d="m45.985 3.7909h0.05788q0.31109 0 0.50402-0.18328 0.09646 0.089228 0.23392 0.13746 0.13746 0.04582 0.31592 0.04582v-0.80546q-0.18569 0-0.18569-0.1881v-0.86816h-0.73312v0.87781q0 0.17846-0.19293 0.17846zm0.24116 0.69935q0 0.13022 0.09887 0.2291 0.08923 0.10129 0.22669 0.10129 0.13505 0 0.23392-0.10129 0.10129-0.098874 0.10129-0.2291 0-0.14228-0.09646-0.24357-0.09405-0.098874-0.23874-0.098874-0.13022 0-0.20498 0.07717-0.07235 0.079582-0.09646 0.13264-0.02412 0.055466-0.02412 0.13264z" style="stroke-width:.26458"/>
   <path d="m44.164 3.7909h0.6246q0.33038 0 0.53537-0.18328 0.1037 0.089228 0.23392 0.13746 0.13264 0.04582 0.28215 0.04582h0.21704v-0.80546q-0.23392 0-0.30868-0.15916l-0.61013-1.2034-0.66077 0.32315 0.22669 0.45096q0.17604 0.37138 0.17604 0.46061 0 0.14228-0.39308 0.14228l-0.20498-0.00482-0.11817-0.00965z" style="stroke-width:.26458"/>
   <path d="m42.879 3.7909 0.80888 1.6669-0.07577-4.6307h-0.73312z" style="stroke-width:.26458"/>
   <path d="m37.954 5.3063 0.74517-1.5154v-1.078c0-0.053055 0.02251-0.099678 0.06752-0.13987 0.03859-0.043408 0.08521-0.065112 0.13987-0.065112 0.10611 0 0.17363 0.11013 0.20257 0.33038 0.02733 0.29743 0.09405 0.53054 0.20016 0.69935 0.10611 0.16881 0.35772 0.25321 0.75482 0.25321v-0.80546c-0.14469 0-0.21704-0.042604-0.21704-0.12781 0-0.32958-0.07797-0.59968-0.23392-0.81029-0.15434-0.21222-0.39067-0.31833-0.709-0.31833-0.26366 0-0.48794 0.092443-0.67283 0.27733-0.18489 0.18489-0.27733 0.40916-0.27733 0.67283zm2.1029-1.5154h0.11334c0.20579 0 0.38022-0.061093 0.52331-0.18328 0.08038 0.059485 0.16961 0.10531 0.26768 0.13746 0.09807 0.030547 0.20338 0.04582 0.31592 0.04582v-0.80546c-0.14469 0-0.21704-0.057074-0.21704-0.17122v-1.9871h-0.73794v1.9799c0 0.075562-0.02572 0.12701-0.07717 0.15434-0.03698 0.016077-0.09727 0.024116-0.18087 0.024116zm1.2227 0h0.16158c0.2492 0 0.45659-0.074759 0.62218-0.22428 0.16559-0.15112 0.24839-0.35209 0.24839-0.60289v-2.1366h-0.73794v1.9703c0 0.086816-0.01929 0.13746-0.05788 0.15193-0.03698 0.014469-0.07315 0.024116-0.10852 0.028939-0.03537 0.00482-0.07797 0.00723-0.12781 0.00723z" style="stroke-width:.26458"/>
   <path d="m35.461 3.7909 0.50581 1.7427 0.22731-4.7065h-0.73312z" style="stroke-width:.26458"/>
   <path d="m34.139 3.7909h0.16158q0.37379 0 0.62218-0.22428 0.24839-0.22669 0.24839-0.60289v-2.1366h-0.73794v1.9703q0 0.13022-0.05788 0.15193-0.05547 0.021704-0.10852 0.028939-0.05306 0.00723-0.12781 0.00723z" style="stroke-width:.26458"/>
   <path d="m33.064 0.73063q0 0.11817 0.09164 0.20739 0.09164 0.089228 0.20981 0.089228 0.11576 0 0.20498-0.086816 0.08923-0.089228 0.08923-0.20981 0-0.12781-0.08682-0.21222-0.08441-0.086816-0.2074-0.086816-0.11817 0-0.20981 0.089228t-0.09164 0.20981zm-0.41238 0.67765q0 0.11334 0.08923 0.21463 0.08923 0.089228 0.21463 0.089228 0.10852 0 0.20981-0.089228 0.041-0.048231 0.06029-0.096463 0.02171-0.050643 0.02171-0.11817 0-0.12299-0.08199-0.20498-0.1037-0.094051-0.20981-0.094051-0.11334 0-0.21463 0.089228-0.08923 0.089228-0.08923 0.20981zm0.83681-0.00241q0 0.11334 0.08441 0.20739 0.0844 0.09164 0.2074 0.09164 0.11817 0 0.2074-0.089228 0.09164-0.089228 0.09164-0.20981 0-0.11334-0.08923-0.21463-0.08441-0.084405-0.20981-0.084405-0.12058 0-0.20981 0.084405-0.08199 0.094051-0.08199 0.21463zm-0.98392 2.385h0.38103q0.29904 0 0.50402-0.18328 0.19051 0.18328 0.51849 0.18328h0.29662v-0.80546q-0.31109 0-0.37862-0.038585-0.06511-0.040997-0.09164-0.096463-0.02653-0.057878-0.02653-0.14711l0.01688-0.28456q0-0.079582 0.0072-0.21704 0.0072-0.13746 0.0072-0.20016h-0.73312q0 0.079582 0.0072 0.23151 0.0096 0.14952 0.0096 0.19534l0.01447 0.28215q0 0.16881-0.09405 0.2291-0.10611 0.04582-0.4389 0.04582z" style="stroke-width:.26458"/>
   <path d="m31.622 2.9637q0 0.39791 0.25563 0.61254 0.25804 0.21463 0.66318 0.21463v-0.80546q-0.19292 0-0.19292-0.16881v-1.9895h-0.72588z" style="stroke-width:.26458"/>
   <path d="m30.327 1.2708q0 0.13746 0.09887 0.23875 0.1037 0.09164 0.23874 0.09164t0.23392-0.096463q0.09887-0.096463 0.09887-0.23392 0-0.13022-0.09887-0.2291-0.09887-0.10129-0.23392-0.10129-0.13505 0-0.23633 0.10129-0.10128 0.098874-0.10128 0.2291zm-0.21222 2.5201h0.13264q0.37138 0 0.62218-0.22186 0.25322-0.22186 0.25322-0.6053v-1.0346h-0.7307q0 0.089228 0.0072 0.26045 0.0096 0.16881 0.0096 0.21463l0.01447 0.29903q0 0.20981-0.08199 0.23633-0.08199 0.024116-0.22428 0.043408 0 0.00241-0.0024 0.00241z" style="stroke-width:.26458"/>
   <path d="m27.52 3.7451c0 0.36977 0.1254 0.67845 0.3762 0.92604 0.25241 0.24759 0.56029 0.37138 0.92363 0.37138 0.3537 0 0.62218-0.090836 0.80546-0.27251 0.18489-0.18006 0.31109-0.34566 0.37862-0.49678 0.06913-0.14952 0.1037-0.31029 0.1037-0.48231h0.12058v-0.80546h-1.1358l-0.37379 0.80546h0.63665c-0.0209 0.13344-0.08119 0.24437-0.18087 0.3328-0.09968 0.088424-0.21141 0.13264-0.33521 0.13264-0.15595 0-0.29019-0.055466-0.40273-0.1664-0.11254-0.10932-0.16881-0.24357-0.16881-0.40273 0-0.086816 0.02653-0.19212 0.07958-0.31592 0.05466-0.12379 0.13826-0.2717 0.2508-0.44373l0.20887-1.8279c-0.30225 0.47427-1.2868 2.3158-1.2868 2.6454zm0.45096 1.8183c0 0.080386 0.03055 0.15273 0.09164 0.21704 0.0627 0.064309 0.13505 0.096463 0.21704 0.096463 0.07717 0 0.14952-0.03135 0.21704-0.094051 0.0627-0.061093 0.09405-0.13424 0.09405-0.21945 0-0.086817-0.03055-0.16158-0.09164-0.22428-0.06109-0.061093-0.13424-0.09164-0.21945-0.09164-0.07717 0-0.14871 0.030547-0.21463 0.09164-0.0627 0.067524-0.09405 0.14228-0.09405 0.22428zm0.79823 0.014469c0 0.085209 0.03055 0.15836 0.09164 0.21945 0.0627 0.062701 0.13666 0.094051 0.22186 0.094051 0.08039 0 0.15193-0.03135 0.21463-0.094051 0.0627-0.061093 0.09405-0.13424 0.09405-0.21945 0-0.083601-0.02894-0.15675-0.08682-0.21945-0.05788-0.061093-0.13184-0.091639-0.22186-0.091639-0.08521 0-0.15916 0.030546-0.22186 0.091639-0.06109 0.061093-0.09164 0.13424-0.09164 0.21945z" style="display:inline;stroke-width:.26458"/>
  </g>
  <g style="direction:rtl" aria-label="عبدالله بن عادل الثاني">
   <path d="m47.82 3.75h2.3754v-0.80546h-1.0563q-0.11334 0-0.19292-0.07717-0.07958-0.07717-0.08923-0.19775 0-0.11093 0.06752-0.17604 0.06752-0.067524 0.10852-0.086816 0.041-0.019293 0.10611-0.019293 0.19293 0 0.2508 0.16158l0.61254-0.40032q-0.12781-0.2508-0.37379-0.40755-0.24598-0.15675-0.52331-0.15675-0.42444 0-0.71865 0.31592-0.29421 0.3135-0.29421 0.75241 0 0.13022 0.03376 0.2918h-0.29903z" style="direction:rtl;stroke-width:.070004"/>
   <path d="m46.78 3.75h0.05788q0.31109 0 0.50402-0.18328 0.09646 0.089228 0.23392 0.13746 0.13746 0.04582 0.31592 0.04582v-0.80546q-0.18569 0-0.18569-0.1881v-0.86816h-0.73312v0.87781q0 0.17846-0.19292 0.17846zm0.24116 0.69935q0 0.13022 0.09887 0.2291 0.08923 0.10129 0.22669 0.10129 0.13505 0 0.23392-0.10129 0.10129-0.098874 0.10129-0.2291 0-0.14228-0.09646-0.24357-0.09405-0.098874-0.23874-0.098874-0.13022 0-0.20498 0.07717-0.07235 0.079582-0.09646 0.13264-0.02412 0.055466-0.02412 0.13264z" style="direction:rtl;stroke-width:.070004"/>
   <path d="m44.96 3.75h0.6246q0.33038 0 0.53537-0.18328 0.1037 0.089228 0.23392 0.13746 0.13264 0.04582 0.28215 0.04582h0.21704v-0.80546q-0.23392 0-0.30868-0.15916l-0.61013-1.2034-0.66077 0.32315 0.22669 0.45096q0.17604 0.37138 0.17604 0.46061 0 0.14228-0.39308 0.14228l-0.20498-0.00482-0.11817-0.00965z" style="direction:rtl;stroke-width:.070004"/>
   <path d="m43.674 3.75 0.64895 0.99967v-3.3033l-0.64895-0.66018z" style="direction:rtl;stroke-width:.070004"/>
   <path d="m38.699 4.7497 0.74517-1.0325v-1.078c0-0.053055 0.07358-0.066817 0.11859-0.10701 0.03859-0.043408 0.08521-0.065112 0.13987-0.065112 0.10611 0 0.17363 0.11013 0.20257 0.33038 0.02733 0.29743 0.09405 0.53054 0.20016 0.69935 0.10611 0.16881 0.35772 0.25321 0.75482 0.25321v-0.80546c-0.14469 0-0.21704-0.042604-0.21704-0.12781 0-0.32958-0.07797-0.59968-0.23392-0.81029-0.15434-0.21222-0.39067-0.31833-0.709-0.31833-0.26366 0-0.48794 0.092443-0.67283 0.27733-0.18489 0.18489-0.3284 0.3763-0.3284 0.63997zm2.154-0.99967h0.11334c0.20579 0 0.38022-0.061093 0.52331-0.18328 0.08038 0.059485 0.16961 0.10531 0.26768 0.13746 0.09807 0.030547 0.20338 0.04582 0.31592 0.04582v-0.80546c-0.14469 0-0.21704-0.057074-0.21704-0.17122v-1.9871h-0.73794v1.9799c0 0.075562-0.02572 0.12701-0.07717 0.15434-0.03698 0.016077-0.09727 0.024116-0.18087 0.024116zm1.2227 0h0.16158c0.2492 0 0.45659-0.074759 0.62218-0.22428 0.16559-0.15112 0.24839-0.35209 0.24839-0.60289v-2.1366h-0.73794v1.9703c0 0.086816-0.01929 0.13746-0.05788 0.15193-0.03698 0.014469-0.07315 0.024116-0.10852 0.028939-0.03537 0.00482-0.07798 0.00723-0.12781 0.00723z" style="direction:rtl;stroke-width:.070004"/>
   <path d="m36.362 4.4252q0 0.12781 0.1037 0.22669 0.1037 0.098874 0.2291 0.098874 0.13746 0 0.23392-0.098874 0.09646-0.098874 0.09646-0.22669 0-0.13746-0.09646-0.23633-0.09646-0.098874-0.23392-0.098874-0.13264 0-0.23392 0.098874-0.09887 0.098874-0.09887 0.23633zm-0.19534-0.67524h0.13264q0.37138 0 0.62218-0.22186 0.25321-0.22186 0.25321-0.6053v-1.0346h-0.7307q0 0.089228 0.0072 0.26045 0.0096 0.16881 0.0096 0.21463l0.01447 0.29903q0 0.20981-0.08199 0.23633-0.08199 0.024116-0.22428 0.043408 0 0.00241-0.0024 0.00241z" style="direction:rtl;stroke-width:.070004"/>
   <path d="m34.291 1.7749q0 0.13264 0.09887 0.2291 0.10129 0.096463 0.23151 0.096463 0.13505 0 0.23633-0.09164 0.09646-0.1037 0.09646-0.23392 0-0.13746-0.09887-0.23392-0.09887-0.096463-0.23392-0.096463-0.13505 0-0.23392 0.098874-0.09646 0.096463-0.09646 0.23151zm-0.87058 1.9293q0 0.55225 0.28215 0.8344 0.28456 0.28215 0.50884 0.37138 0.22669 0.091639 0.51366 0.091639 0.53537 0 0.81511-0.27974 0.28215-0.27974 0.38103-0.50643 0.10129-0.22428 0.10129-0.48955l0.20016 0.024116v-0.80546q-0.31833 0-0.55948-0.28456l-0.37379-0.56913-0.62218 0.4582 0.37138 0.52572q0.24598 0.40032 0.24598 0.58119 0 0.21704-0.12299 0.34485-0.12299 0.12781-0.21945 0.17122-0.09646 0.043408-0.21704 0.043408-0.22186 0-0.39067-0.16881-0.1664-0.16881-0.1664-0.40032 0-0.2918 0.26045-0.57878l-0.6053-0.41961q-0.40273 0.49678-0.40273 1.0563z" style="direction:rtl;stroke-width:.070004"/>
   <path d="m29.473 3.75h2.3754v-0.80546h-1.0563q-0.11334 0-0.19292-0.07717-0.07958-0.07717-0.08923-0.19775 0-0.11093 0.06752-0.17604 0.06752-0.067524 0.10852-0.086816 0.041-0.019293 0.10611-0.019293 0.19293 0 0.2508 0.16158l0.61254-0.40032q-0.12781-0.2508-0.37379-0.40755-0.24598-0.15675-0.52331-0.15675-0.42444 0-0.71865 0.31592-0.29421 0.3135-0.29421 0.75241 0 0.13022 0.03376 0.2918h-0.29903z" style="direction:rtl;stroke-width:.070004"/>
   <path d="m28.626 2.9228c0 0.26527 0.08521 0.46945 0.25563 0.61254 0.17202 0.14309 0.39309 0.21463 0.66318 0.21463v-0.80546c-0.12862 0-0.19292-0.05627-0.19292-0.16881l0.16833-1.3294-0.89421-0.66018z" style="direction:rtl;stroke-width:.070004"/>
   <path d="m26.514 3.75h0.6246q0.41479 0 0.67524-0.26045 0.26286-0.26045 0.26286-0.68247 0-0.24357-0.13022-0.46302-0.12781-0.22186-0.36415-0.45579l-0.38344-0.36415-0.49196 0.58119 0.3545 0.31592q0.25563 0.24839 0.25563 0.36415 0 0.17363-0.45338 0.17363l-0.20981-0.00482-0.13987-0.00965z" style="direction:rtl;stroke-width:.070004"/>
   <path d="m23.661 3.7645c0 0.17203 0.02974 0.33038 0.08923 0.47508 0.05949 0.1463 0.18006 0.30948 0.36174 0.48955 0.18328 0.18167 0.44453 0.27251 0.78376 0.27251 0.34405 0 0.63103-0.12299 0.86093-0.36897s0.34485-0.54099 0.34485-0.88505v-2.9518l-0.73683 0.65053-0.0204 2.2795c-0.0011 0.127-0.04502 0.23633-0.13505 0.32797-0.09003 0.093247-0.19694 0.13987-0.32074 0.13987-0.11415 0-0.21624-0.047428-0.30627-0.14228-0.08842-0.093247-0.13264-0.20498-0.13264-0.33521 0-0.16559 0.07958-0.33199 0.23874-0.49919l-0.61495-0.46784c-0.27492 0.28617-0.41238 0.6246-0.41238 1.0153z" style="direction:rtl;stroke-width:.070004"/>
   <path d="m21.189 3.75 0.85553 0.99967-0.14282-3.3033-0.71272-0.66018z" style="direction:rtl;stroke-width:.070004"/>
   <path d="m19.867 3.75h0.16158c0.2492 0 0.45659-0.074759 0.62218-0.22428 0.16559-0.15112 0.24839-0.35209 0.24839-0.60289v-2.1366l-0.73794 0.66018v1.3101c0 0.086816-0.01929 0.13746-0.05788 0.15193-0.03698 0.014469-0.07315 0.024116-0.10852 0.028939-0.03537 0.00482-0.07798 0.00723-0.12781 0.00723z" style="direction:rtl;stroke-width:.070004"/>
   <path d="m18.792 0.68971q0 0.11817 0.09164 0.20739 0.09164 0.089228 0.20981 0.089228 0.11576 0 0.20498-0.086816 0.08923-0.089228 0.08923-0.20981 0-0.12781-0.08682-0.21222-0.08441-0.086816-0.2074-0.086816-0.11817 0-0.20981 0.089228-0.09164 0.089228-0.09164 0.20981zm-0.41238 0.67765q0 0.11334 0.08923 0.21463 0.08923 0.089228 0.21463 0.089228 0.10852 0 0.20981-0.089228 0.041-0.048231 0.06029-0.096463 0.0217-0.050643 0.0217-0.11817 0-0.12299-0.08199-0.20498-0.1037-0.094051-0.20981-0.094051-0.11334 0-0.21463 0.089228-0.08923 0.089228-0.08923 0.20981zm0.83681-0.00241q0 0.11334 0.08441 0.20739 0.08441 0.09164 0.2074 0.09164 0.11817 0 0.2074-0.089228 0.09164-0.089228 0.09164-0.20981 0-0.11334-0.08923-0.21463-0.08441-0.084405-0.20981-0.084405-0.12058 0-0.20981 0.084405-0.08199 0.094051-0.08199 0.21463zm-0.98392 2.385h0.38103q0.29904 0 0.50402-0.18328 0.19051 0.18328 0.51849 0.18328h0.29662v-0.80547q-0.31109 0-0.37862-0.038585-0.06511-0.040997-0.09164-0.096463-0.02653-0.057878-0.02653-0.14711l0.01688-0.28456q0-0.079582 0.0072-0.21704 0.0072-0.13746 0.0072-0.20016h-0.73312q0 0.079582 0.0072 0.23151 0.0096 0.14952 0.0096 0.19534l0.01447 0.28215q0 0.16881-0.09405 0.2291-0.10611 0.04582-0.4389 0.04582z" style="direction:rtl;stroke-width:.070004"/>
   <path d="m17.35 2.9228c0 0.26527 0.08521 0.46945 0.25563 0.61254 0.17202 0.14309 0.39309 0.21463 0.66318 0.21463v-0.80546c-0.12862 0-0.19292-0.05627-0.19292-0.16881l-0.10201-1.3294-0.62387-0.66018z" style="direction:rtl;stroke-width:.070004"/>
   <path d="m16.055 1.2299q0 0.13746 0.09887 0.23875 0.1037 0.09164 0.23874 0.09164 0.13505 0 0.23392-0.096463 0.09887-0.096463 0.09887-0.23392 0-0.13022-0.09887-0.2291-0.09887-0.10129-0.23392-0.10129-0.13505 0-0.23633 0.10129-0.10129 0.098874-0.10129 0.2291zm-0.21222 2.5201h0.13264q0.37138 0 0.62218-0.22186 0.25321-0.22186 0.25321-0.6053v-1.0346h-0.7307q0 0.089228 0.0072 0.26045 0.0096 0.16881 0.0096 0.21463l0.01447 0.29903q0 0.20981-0.08199 0.23633-0.08199 0.024116-0.22428 0.043408 0 0.00241-0.0024 0.00241z" style="direction:rtl;stroke-width:.070004"/>
   <path d="m13.248 3.7042q0 0.55466 0.3762 0.92604 0.37862 0.37138 0.92363 0.37138 0.53054 0 0.80546-0.27251 0.27733-0.2701 0.37862-0.49678 0.1037-0.22428 0.1037-0.48231h0.12058v-0.80546h-1.1358l-0.37379 0.80546h0.63665q-0.03135 0.20016-0.18087 0.3328-0.14952 0.13264-0.33521 0.13264-0.23392 0-0.40273-0.1664-0.16881-0.16399-0.16881-0.40273 0-0.13022 0.07958-0.31592 0.08199-0.18569 0.2508-0.44373l-0.62459-0.38826q-0.45338 0.71141-0.45338 1.2058zm0.45096 1.8183q0 0.12058 0.09164 0.21704 0.09405 0.096463 0.21704 0.096463 0.11576 0 0.21704-0.094051 0.09405-0.09164 0.09405-0.21945 0-0.13022-0.09164-0.22428-0.09164-0.09164-0.21945-0.09164-0.11576 0-0.21463 0.09164-0.09405 0.10129-0.09405 0.22428zm0.79823 0.014469q0 0.12781 0.09164 0.21945 0.09405 0.094051 0.22186 0.094051 0.12058 0 0.21463-0.094051 0.09405-0.09164 0.09405-0.21945 0-0.1254-0.08682-0.21945-0.08682-0.09164-0.22186-0.09164-0.12781 0-0.22186 0.09164-0.09164 0.09164-0.09164 0.21945z" style="direction:rtl;stroke-width:.070004"/>
  </g>
 </g>
</svg>
