<?xml version="1.0" encoding="UTF-8"?>
<svg width="192" height="23" version="1.1" viewBox="0 0 50.8 6.0854" xmlns="http://www.w3.org/2000/svg" xmlns:cc="http://creativecommons.org/ns#" xmlns:dc="http://purl.org/dc/elements/1.1/" xmlns:rdf="http://www.w3.org/1999/02/22-rdf-syntax-ns#">
 <metadata>
  <rdf:RDF>
   <cc:Work rdf:about="">
    <dc:format>image/svg+xml</dc:format>
    <dc:type rdf:resource="http://purl.org/dc/dcmitype/StillImage"/>
    <dc:title/>
   </cc:Work>
  </rdf:RDF>
 </metadata>
 <g>
  <g transform="translate(-12.502 -.075769)" stroke-width=".26458" aria-label="عبدالله الثاني">
   <path d="m47.024 3.7909h2.3754v-0.80546h-1.0563q-0.11334 0-0.19292-0.07717-0.07958-0.07717-0.08923-0.19775 0-0.11093 0.06752-0.17604 0.06752-0.067524 0.10852-0.086816 0.041-0.019293 0.10611-0.019293 0.19293 0 0.2508 0.16158l0.61254-0.40032q-0.12781-0.2508-0.37379-0.40755-0.24598-0.15675-0.52331-0.15675-0.42444 0-0.71865 0.31592-0.29421 0.3135-0.29421 0.75241 0 0.13022 0.03376 0.2918h-0.29903z"/>
   <path d="m45.985 3.7909h0.05788q0.31109 0 0.50402-0.18328 0.09646 0.089228 0.23392 0.13746 0.13746 0.04582 0.31592 0.04582v-0.80546q-0.18569 0-0.18569-0.1881v-0.86816h-0.73312v0.87781q0 0.17846-0.19293 0.17846zm0.24116 0.69935q0 0.13022 0.09887 0.2291 0.08923 0.10129 0.22669 0.10129 0.13505 0 0.23392-0.10129 0.10129-0.098874 0.10129-0.2291 0-0.14228-0.09646-0.24357-0.09405-0.098874-0.23874-0.098874-0.13022 0-0.20498 0.07717-0.07235 0.079582-0.09646 0.13264-0.02412 0.055466-0.02412 0.13264z"/>
   <path d="m44.164 3.7909h0.6246q0.33038 0 0.53537-0.18328 0.1037 0.089228 0.23392 0.13746 0.13264 0.04582 0.28215 0.04582h0.21704v-0.80546q-0.23392 0-0.30868-0.15916l-0.61013-1.2034-0.66077 0.32315 0.22669 0.45096q0.17604 0.37138 0.17604 0.46061 0 0.14228-0.39308 0.14228l-0.20498-0.00482-0.11817-0.00965z"/>
   <path d="m42.879 3.7909h0.73312v-2.9638h-0.73312z"/>
   <path d="m37.954 3.7909h0.74517v-1.078q0-0.079582 0.06752-0.13987 0.05788-0.065112 0.13987-0.065112 0.15916 0 0.20257 0.33038 0.041 0.44614 0.20016 0.69935 0.15916 0.25321 0.75482 0.25321v-0.80546q-0.21704 0-0.21704-0.12781 0-0.49437-0.23392-0.81029-0.23151-0.31833-0.709-0.31833-0.3955 0-0.67283 0.27733-0.27733 0.27733-0.27733 0.67283zm2.1029 0h0.11334q0.30868 0 0.52331-0.18328 0.12058 0.089228 0.26768 0.13746 0.1471 0.04582 0.31592 0.04582v-0.80546q-0.21704 0-0.21704-0.17122v-1.9871h-0.73794v1.9799q0 0.11334-0.07717 0.15434-0.05547 0.024116-0.18087 0.024116zm1.2227 0h0.16158q0.37379 0 0.62218-0.22428 0.24839-0.22669 0.24839-0.60289v-2.1366h-0.73794v1.9703q0 0.13022-0.05788 0.15193-0.05547 0.021704-0.10852 0.028939-0.05305 0.00723-0.12781 0.00723z"/>
   <path d="m35.461 3.7909h0.73312v-2.9638h-0.73312z"/>
   <path d="m34.139 3.7909h0.16158q0.37379 0 0.62218-0.22428 0.24839-0.22669 0.24839-0.60289v-2.1366h-0.73794v1.9703q0 0.13022-0.05788 0.15193-0.05547 0.021704-0.10852 0.028939-0.05306 0.00723-0.12781 0.00723z"/>
   <path d="m33.064 0.73063q0 0.11817 0.09164 0.20739 0.09164 0.089228 0.20981 0.089228 0.11576 0 0.20498-0.086816 0.08923-0.089228 0.08923-0.20981 0-0.12781-0.08682-0.21222-0.08441-0.086816-0.2074-0.086816-0.11817 0-0.20981 0.089228t-0.09164 0.20981zm-0.41238 0.67765q0 0.11334 0.08923 0.21463 0.08923 0.089228 0.21463 0.089228 0.10852 0 0.20981-0.089228 0.041-0.048231 0.06029-0.096463 0.02171-0.050643 0.02171-0.11817 0-0.12299-0.08199-0.20498-0.1037-0.094051-0.20981-0.094051-0.11334 0-0.21463 0.089228-0.08923 0.089228-0.08923 0.20981zm0.83681-0.00241q0 0.11334 0.08441 0.20739 0.0844 0.09164 0.2074 0.09164 0.11817 0 0.2074-0.089228 0.09164-0.089228 0.09164-0.20981 0-0.11334-0.08923-0.21463-0.08441-0.084405-0.20981-0.084405-0.12058 0-0.20981 0.084405-0.08199 0.094051-0.08199 0.21463zm-0.98392 2.385h0.38103q0.29904 0 0.50402-0.18328 0.19051 0.18328 0.51849 0.18328h0.29662v-0.80546q-0.31109 0-0.37862-0.038585-0.06511-0.040997-0.09164-0.096463-0.02653-0.057878-0.02653-0.14711l0.01688-0.28456q0-0.079582 0.0072-0.21704 0.0072-0.13746 0.0072-0.20016h-0.73312q0 0.079582 0.0072 0.23151 0.0096 0.14952 0.0096 0.19534l0.01447 0.28215q0 0.16881-0.09405 0.2291-0.10611 0.04582-0.4389 0.04582z"/>
   <path d="m31.622 2.9637q0 0.39791 0.25563 0.61254 0.25804 0.21463 0.66318 0.21463v-0.80546q-0.19292 0-0.19292-0.16881v-1.9895h-0.72588z"/>
   <path d="m30.327 1.2708q0 0.13746 0.09887 0.23875 0.1037 0.09164 0.23874 0.09164t0.23392-0.096463q0.09887-0.096463 0.09887-0.23392 0-0.13022-0.09887-0.2291-0.09887-0.10129-0.23392-0.10129-0.13505 0-0.23633 0.10129-0.10128 0.098874-0.10128 0.2291zm-0.21222 2.5201h0.13264q0.37138 0 0.62218-0.22186 0.25322-0.22186 0.25322-0.6053v-1.0346h-0.7307q0 0.089228 0.0072 0.26045 0.0096 0.16881 0.0096 0.21463l0.01447 0.29903q0 0.20981-0.08199 0.23633-0.08199 0.024116-0.22428 0.043408 0 0.00241-0.0024 0.00241z"/>
   <path d="m27.52 3.7451q0 0.55466 0.3762 0.92604 0.37862 0.37138 0.92363 0.37138 0.53054 0 0.80546-0.27251 0.27733-0.2701 0.37862-0.49678 0.1037-0.22428 0.1037-0.48231h0.12058v-0.80546h-1.1358l-0.37379 0.80546h0.63665q-0.03135 0.20016-0.18087 0.3328-0.14952 0.13264-0.33521 0.13264-0.23392 0-0.40273-0.1664-0.16881-0.16399-0.16881-0.40273 0-0.13022 0.07958-0.31592 0.08199-0.18569 0.2508-0.44373l-0.62459-0.38826q-0.45338 0.71141-0.45338 1.2058zm0.45096 1.8183q0 0.12058 0.09164 0.21704 0.09405 0.096463 0.21704 0.096463 0.11576 0 0.21704-0.094051 0.09405-0.09164 0.09405-0.21945 0-0.13022-0.09164-0.22428-0.09164-0.09164-0.21945-0.09164-0.11576 0-0.21463 0.09164-0.09405 0.10129-0.09405 0.22428zm0.79823 0.014469q0 0.12781 0.09164 0.21945 0.09405 0.094051 0.22186 0.094051 0.12058 0 0.21463-0.094051 0.09405-0.09164 0.09405-0.21945 0-0.1254-0.08682-0.21945-0.08682-0.091639-0.22186-0.091639-0.12781 0-0.22186 0.091639-0.09164 0.09164-0.09164 0.21945z"/>
  </g>
 </g>
</svg>
